<svg version="1.1" id="Layer_1" xmlns="http://www.w3.org/2000/svg" xmlns:xlink="http://www.w3.org/1999/xlink" x="0px" y="0px"
	 width="100%" viewBox="0 0 100 100" enable-background="new 0 0 100 100" xml:space="preserve">
<path fill="#000000" opacity="1.000000" stroke="none" 
	d="
M56.000000,101.000000 
	C37.333336,101.000000 19.166674,101.000000 1.000007,101.000000 
	C1.000005,67.666679 1.000005,34.333351 1.000002,1.000021 
	C34.333317,1.000014 67.666634,1.000014 100.999969,1.000007 
	C100.999977,34.333313 100.999977,67.666626 100.999985,100.999969 
	C86.166664,101.000000 71.333336,101.000000 56.000000,101.000000 
M12.318846,48.268093 
	C8.732061,54.211464 8.796268,54.651997 14.194352,59.647205 
	C16.446589,61.472603 18.698826,63.298000 21.243950,65.732315 
	C25.970663,69.780258 30.806347,73.708984 35.397198,77.905548 
	C41.477894,83.463997 45.218845,84.869301 50.010239,80.707520 
	C55.628002,75.827957 60.132427,69.666618 65.700470,63.772984 
	C67.171700,62.197380 68.642929,60.621773 70.715233,58.757317 
	C73.845612,55.190712 76.975990,51.624111 80.707375,47.759666 
	C83.438484,44.704365 86.065125,41.547241 88.922829,38.615326 
	C94.569359,32.822189 94.497093,30.636848 88.149666,25.691780 
	C86.864403,24.690470 85.650330,23.231773 84.196541,22.905331 
	C82.375221,22.496359 79.530617,22.256540 78.527725,23.295343 
	C71.456078,30.620171 64.744133,38.292259 57.326679,46.206444 
	C54.194130,49.790554 51.061581,53.374664 47.323975,57.270416 
	C46.387009,58.559505 45.450047,59.848595 44.482006,61.180439 
	C42.444859,59.957474 40.776859,58.956123 38.809925,57.344719 
	C35.247639,54.216652 31.685350,51.088581 27.774834,47.355648 
	C26.502886,46.391472 25.131458,45.532707 23.977396,44.443611 
	C20.320070,40.992176 18.728191,41.064770 15.502841,44.981396 
	C14.680900,45.979504 13.804795,46.933006 12.318846,48.268093 
z"/>
<path fill="#65E04C" opacity="1.000000" stroke="none" 
	d="
M57.917347,45.853481 
	C64.744133,38.292259 71.456078,30.620171 78.527725,23.295343 
	C79.530617,22.256540 82.375221,22.496359 84.196541,22.905331 
	C85.650330,23.231773 86.864403,24.690470 88.149666,25.691780 
	C94.497093,30.636848 94.569359,32.822189 88.922829,38.615326 
	C86.065125,41.547241 83.438484,44.704365 79.931915,47.900089 
	C74.007568,48.027241 68.847313,48.206280 63.715542,47.903061 
	C61.749310,47.786884 59.848156,46.569218 57.917347,45.853481 
z"/>
<path fill="#44C01C" opacity="1.000000" stroke="none" 
	d="
M65.119759,64.061249 
	C60.132427,69.666618 55.628002,75.827957 50.010239,80.707520 
	C45.218845,84.869301 41.477894,83.463997 35.397198,77.905548 
	C30.806347,73.708984 25.970663,69.780258 21.460831,65.222343 
	C23.458879,64.479782 25.239382,64.051964 27.021318,64.045906 
	C39.720634,64.002754 52.420242,64.045700 65.119759,64.061249 
z"/>
<path fill="#54D035" opacity="1.000000" stroke="none" 
	d="
M57.622013,46.029961 
	C59.848156,46.569218 61.749310,47.786884 63.715542,47.903061 
	C68.847313,48.206280 74.007568,48.027241 79.631416,48.049011 
	C76.975990,51.624111 73.845612,55.190712 69.938896,58.893074 
	C64.031555,59.016479 58.890232,59.187420 53.774750,58.899376 
	C51.796024,58.787956 49.875866,57.636444 47.929031,56.958775 
	C51.061581,53.374664 54.194130,49.790554 57.622013,46.029961 
z"/>
<path fill="#4ECA2C" opacity="1.000000" stroke="none" 
	d="
M47.626503,57.114594 
	C49.875866,57.636444 51.796024,58.787956 53.774750,58.899376 
	C58.890232,59.187420 64.031555,59.016479 69.638359,59.037498 
	C68.642929,60.621773 67.171700,62.197380 65.410110,63.917114 
	C52.420242,64.045700 39.720634,64.002754 27.021318,64.045906 
	C25.239382,64.051964 23.458879,64.479782 21.314388,64.917885 
	C18.698826,63.298000 16.446589,61.472603 14.517283,59.334969 
	C22.929764,58.666744 31.019312,58.310757 39.108860,57.954769 
	C40.776859,58.956123 42.444859,59.957474 44.482006,61.180439 
	C45.450047,59.848595 46.387009,58.559505 47.626503,57.114594 
z"/>
<path fill="#54D035" opacity="1.000000" stroke="none" 
	d="
M38.959393,57.649742 
	C31.019312,58.310757 22.929764,58.666744 14.364371,59.030365 
	C8.796268,54.651997 8.732061,54.211464 12.997581,48.289616 
	C18.491899,48.194263 23.307482,48.077389 28.123064,47.960510 
	C31.685350,51.088581 35.247639,54.216652 38.959393,57.649742 
z"/>
<path fill="#65E04C" opacity="1.000000" stroke="none" 
	d="
M27.948948,47.658081 
	C23.307482,48.077389 18.491899,48.194263 13.314947,48.109070 
	C13.804795,46.933006 14.680900,45.979504 15.502841,44.981396 
	C18.728191,41.064770 20.320070,40.992176 23.977396,44.443611 
	C25.131458,45.532707 26.502886,46.391472 27.948948,47.658081 
z"/>
</svg>